<?xml version="1.0" encoding="utf-8" standalone="no"?>
<!DOCTYPE svg PUBLIC "-//W3C//DTD SVG 1.1//EN"
  "http://www.w3.org/Graphics/SVG/1.1/DTD/svg11.dtd">
<svg xmlns:xlink="http://www.w3.org/1999/xlink" width="1382.4pt" height="709.2pt" viewBox="0 0 1382.4 709.2" xmlns="http://www.w3.org/2000/svg" version="1.1">
 <metadata>
  <rdf:RDF xmlns:dc="http://purl.org/dc/elements/1.1/" xmlns:cc="http://creativecommons.org/ns#" xmlns:rdf="http://www.w3.org/1999/02/22-rdf-syntax-ns#">
   <cc:Work>
    <dc:type rdf:resource="http://purl.org/dc/dcmitype/StillImage"/>
    <dc:date>2022-10-19T19:38:37.695041</dc:date>
    <dc:format>image/svg+xml</dc:format>
    <dc:creator>
     <cc:Agent>
      <dc:title>Matplotlib v3.5.3, https://matplotlib.org/</dc:title>
     </cc:Agent>
    </dc:creator>
   </cc:Work>
  </rdf:RDF>
 </metadata>
 <defs>
  <style type="text/css">*{stroke-linejoin: round; stroke-linecap: butt}</style>
 </defs>
 <g id="figure_1">
  <g id="patch_1">
   <path d="M 0 709.2 
L 1382.4 709.2 
L 1382.4 0 
L 0 0 
z
" style="fill: #ffffff"/>
  </g>
  <g id="axes_1">
   <g id="patch_2">
    <path d="M 338.688 208.39261 
L 1043.712 208.39261 
L 1043.712 21.276 
L 338.688 21.276 
z
" style="fill: #ffffff"/>
   </g>
   <g id="matplotlib.axis_1">
    <g id="xtick_1">
     <g id="line2d_1">
      <defs>
       <path id="m611a235ee1" d="M 0 0 
L 0 3.5 
" style="stroke: #000000; stroke-width: 0.8"/>
      </defs>
      <g>
       <use xlink:href="#m611a235ee1" x="370.734545" y="208.39261" style="stroke: #000000; stroke-width: 0.8"/>
      </g>
     </g>
     <g id="text_1">
      <!-- 0 -->
      <g transform="translate(367.553295 222.991048)scale(0.1 -0.1)">
       <defs>
        <path id="DejaVuSans-30" d="M 2034 4250 
Q 1547 4250 1301 3770 
Q 1056 3291 1056 2328 
Q 1056 1369 1301 889 
Q 1547 409 2034 409 
Q 2525 409 2770 889 
Q 3016 1369 3016 2328 
Q 3016 3291 2770 3770 
Q 2525 4250 2034 4250 
z
M 2034 4750 
Q 2819 4750 3233 4129 
Q 3647 3509 3647 2328 
Q 3647 1150 3233 529 
Q 2819 -91 2034 -91 
Q 1250 -91 836 529 
Q 422 1150 422 2328 
Q 422 3509 836 4129 
Q 1250 4750 2034 4750 
z
" transform="scale(0.015625)"/>
       </defs>
       <use xlink:href="#DejaVuSans-30"/>
      </g>
     </g>
    </g>
    <g id="xtick_2">
     <g id="line2d_2">
      <g>
       <use xlink:href="#m611a235ee1" x="498.920727" y="208.39261" style="stroke: #000000; stroke-width: 0.8"/>
      </g>
     </g>
     <g id="text_2">
      <!-- 100 -->
      <g transform="translate(489.376977 222.991048)scale(0.1 -0.1)">
       <defs>
        <path id="DejaVuSans-31" d="M 794 531 
L 1825 531 
L 1825 4091 
L 703 3866 
L 703 4441 
L 1819 4666 
L 2450 4666 
L 2450 531 
L 3481 531 
L 3481 0 
L 794 0 
L 794 531 
z
" transform="scale(0.015625)"/>
       </defs>
       <use xlink:href="#DejaVuSans-31"/>
       <use xlink:href="#DejaVuSans-30" x="63.623047"/>
       <use xlink:href="#DejaVuSans-30" x="127.246094"/>
      </g>
     </g>
    </g>
    <g id="xtick_3">
     <g id="line2d_3">
      <g>
       <use xlink:href="#m611a235ee1" x="627.106909" y="208.39261" style="stroke: #000000; stroke-width: 0.8"/>
      </g>
     </g>
     <g id="text_3">
      <!-- 200 -->
      <g transform="translate(617.563159 222.991048)scale(0.1 -0.1)">
       <defs>
        <path id="DejaVuSans-32" d="M 1228 531 
L 3431 531 
L 3431 0 
L 469 0 
L 469 531 
Q 828 903 1448 1529 
Q 2069 2156 2228 2338 
Q 2531 2678 2651 2914 
Q 2772 3150 2772 3378 
Q 2772 3750 2511 3984 
Q 2250 4219 1831 4219 
Q 1534 4219 1204 4116 
Q 875 4013 500 3803 
L 500 4441 
Q 881 4594 1212 4672 
Q 1544 4750 1819 4750 
Q 2544 4750 2975 4387 
Q 3406 4025 3406 3419 
Q 3406 3131 3298 2873 
Q 3191 2616 2906 2266 
Q 2828 2175 2409 1742 
Q 1991 1309 1228 531 
z
" transform="scale(0.015625)"/>
       </defs>
       <use xlink:href="#DejaVuSans-32"/>
       <use xlink:href="#DejaVuSans-30" x="63.623047"/>
       <use xlink:href="#DejaVuSans-30" x="127.246094"/>
      </g>
     </g>
    </g>
    <g id="xtick_4">
     <g id="line2d_4">
      <g>
       <use xlink:href="#m611a235ee1" x="755.293091" y="208.39261" style="stroke: #000000; stroke-width: 0.8"/>
      </g>
     </g>
     <g id="text_4">
      <!-- 300 -->
      <g transform="translate(745.749341 222.991048)scale(0.1 -0.1)">
       <defs>
        <path id="DejaVuSans-33" d="M 2597 2516 
Q 3050 2419 3304 2112 
Q 3559 1806 3559 1356 
Q 3559 666 3084 287 
Q 2609 -91 1734 -91 
Q 1441 -91 1130 -33 
Q 819 25 488 141 
L 488 750 
Q 750 597 1062 519 
Q 1375 441 1716 441 
Q 2309 441 2620 675 
Q 2931 909 2931 1356 
Q 2931 1769 2642 2001 
Q 2353 2234 1838 2234 
L 1294 2234 
L 1294 2753 
L 1863 2753 
Q 2328 2753 2575 2939 
Q 2822 3125 2822 3475 
Q 2822 3834 2567 4026 
Q 2313 4219 1838 4219 
Q 1578 4219 1281 4162 
Q 984 4106 628 3988 
L 628 4550 
Q 988 4650 1302 4700 
Q 1616 4750 1894 4750 
Q 2613 4750 3031 4423 
Q 3450 4097 3450 3541 
Q 3450 3153 3228 2886 
Q 3006 2619 2597 2516 
z
" transform="scale(0.015625)"/>
       </defs>
       <use xlink:href="#DejaVuSans-33"/>
       <use xlink:href="#DejaVuSans-30" x="63.623047"/>
       <use xlink:href="#DejaVuSans-30" x="127.246094"/>
      </g>
     </g>
    </g>
    <g id="xtick_5">
     <g id="line2d_5">
      <g>
       <use xlink:href="#m611a235ee1" x="883.479273" y="208.39261" style="stroke: #000000; stroke-width: 0.8"/>
      </g>
     </g>
     <g id="text_5">
      <!-- 400 -->
      <g transform="translate(873.935523 222.991048)scale(0.1 -0.1)">
       <defs>
        <path id="DejaVuSans-34" d="M 2419 4116 
L 825 1625 
L 2419 1625 
L 2419 4116 
z
M 2253 4666 
L 3047 4666 
L 3047 1625 
L 3713 1625 
L 3713 1100 
L 3047 1100 
L 3047 0 
L 2419 0 
L 2419 1100 
L 313 1100 
L 313 1709 
L 2253 4666 
z
" transform="scale(0.015625)"/>
       </defs>
       <use xlink:href="#DejaVuSans-34"/>
       <use xlink:href="#DejaVuSans-30" x="63.623047"/>
       <use xlink:href="#DejaVuSans-30" x="127.246094"/>
      </g>
     </g>
    </g>
    <g id="xtick_6">
     <g id="line2d_6">
      <g>
       <use xlink:href="#m611a235ee1" x="1011.665455" y="208.39261" style="stroke: #000000; stroke-width: 0.8"/>
      </g>
     </g>
     <g id="text_6">
      <!-- 500 -->
      <g transform="translate(1002.121705 222.991048)scale(0.1 -0.1)">
       <defs>
        <path id="DejaVuSans-35" d="M 691 4666 
L 3169 4666 
L 3169 4134 
L 1269 4134 
L 1269 2991 
Q 1406 3038 1543 3061 
Q 1681 3084 1819 3084 
Q 2600 3084 3056 2656 
Q 3513 2228 3513 1497 
Q 3513 744 3044 326 
Q 2575 -91 1722 -91 
Q 1428 -91 1123 -41 
Q 819 9 494 109 
L 494 744 
Q 775 591 1075 516 
Q 1375 441 1709 441 
Q 2250 441 2565 725 
Q 2881 1009 2881 1497 
Q 2881 1984 2565 2268 
Q 2250 2553 1709 2553 
Q 1456 2553 1204 2497 
Q 953 2441 691 2322 
L 691 4666 
z
" transform="scale(0.015625)"/>
       </defs>
       <use xlink:href="#DejaVuSans-35"/>
       <use xlink:href="#DejaVuSans-30" x="63.623047"/>
       <use xlink:href="#DejaVuSans-30" x="127.246094"/>
      </g>
     </g>
    </g>
   </g>
   <g id="matplotlib.axis_2">
    <g id="ytick_1">
     <g id="line2d_7">
      <defs>
       <path id="m866c22532f" d="M 0 0 
L -3.5 0 
" style="stroke: #000000; stroke-width: 0.8"/>
      </defs>
      <g>
       <use xlink:href="#m866c22532f" x="338.688" y="199.88731" style="stroke: #000000; stroke-width: 0.8"/>
      </g>
     </g>
     <g id="text_7">
      <!-- 0.0 -->
      <g transform="translate(315.784875 203.686528)scale(0.1 -0.1)">
       <defs>
        <path id="DejaVuSans-2e" d="M 684 794 
L 1344 794 
L 1344 0 
L 684 0 
L 684 794 
z
" transform="scale(0.015625)"/>
       </defs>
       <use xlink:href="#DejaVuSans-30"/>
       <use xlink:href="#DejaVuSans-2e" x="63.623047"/>
       <use xlink:href="#DejaVuSans-30" x="95.410156"/>
      </g>
     </g>
    </g>
    <g id="ytick_2">
     <g id="line2d_8">
      <g>
       <use xlink:href="#m866c22532f" x="338.688" y="165.866108" style="stroke: #000000; stroke-width: 0.8"/>
      </g>
     </g>
     <g id="text_8">
      <!-- 0.2 -->
      <g transform="translate(315.784875 169.665327)scale(0.1 -0.1)">
       <use xlink:href="#DejaVuSans-30"/>
       <use xlink:href="#DejaVuSans-2e" x="63.623047"/>
       <use xlink:href="#DejaVuSans-32" x="95.410156"/>
      </g>
     </g>
    </g>
    <g id="ytick_3">
     <g id="line2d_9">
      <g>
       <use xlink:href="#m866c22532f" x="338.688" y="131.844906" style="stroke: #000000; stroke-width: 0.8"/>
      </g>
     </g>
     <g id="text_9">
      <!-- 0.4 -->
      <g transform="translate(315.784875 135.644125)scale(0.1 -0.1)">
       <use xlink:href="#DejaVuSans-30"/>
       <use xlink:href="#DejaVuSans-2e" x="63.623047"/>
       <use xlink:href="#DejaVuSans-34" x="95.410156"/>
      </g>
     </g>
    </g>
    <g id="ytick_4">
     <g id="line2d_10">
      <g>
       <use xlink:href="#m866c22532f" x="338.688" y="97.823704" style="stroke: #000000; stroke-width: 0.8"/>
      </g>
     </g>
     <g id="text_10">
      <!-- 0.6 -->
      <g transform="translate(315.784875 101.622923)scale(0.1 -0.1)">
       <defs>
        <path id="DejaVuSans-36" d="M 2113 2584 
Q 1688 2584 1439 2293 
Q 1191 2003 1191 1497 
Q 1191 994 1439 701 
Q 1688 409 2113 409 
Q 2538 409 2786 701 
Q 3034 994 3034 1497 
Q 3034 2003 2786 2293 
Q 2538 2584 2113 2584 
z
M 3366 4563 
L 3366 3988 
Q 3128 4100 2886 4159 
Q 2644 4219 2406 4219 
Q 1781 4219 1451 3797 
Q 1122 3375 1075 2522 
Q 1259 2794 1537 2939 
Q 1816 3084 2150 3084 
Q 2853 3084 3261 2657 
Q 3669 2231 3669 1497 
Q 3669 778 3244 343 
Q 2819 -91 2113 -91 
Q 1303 -91 875 529 
Q 447 1150 447 2328 
Q 447 3434 972 4092 
Q 1497 4750 2381 4750 
Q 2619 4750 2861 4703 
Q 3103 4656 3366 4563 
z
" transform="scale(0.015625)"/>
       </defs>
       <use xlink:href="#DejaVuSans-30"/>
       <use xlink:href="#DejaVuSans-2e" x="63.623047"/>
       <use xlink:href="#DejaVuSans-36" x="95.410156"/>
      </g>
     </g>
    </g>
    <g id="ytick_5">
     <g id="line2d_11">
      <g>
       <use xlink:href="#m866c22532f" x="338.688" y="63.802502" style="stroke: #000000; stroke-width: 0.8"/>
      </g>
     </g>
     <g id="text_11">
      <!-- 0.8 -->
      <g transform="translate(315.784875 67.601721)scale(0.1 -0.1)">
       <defs>
        <path id="DejaVuSans-38" d="M 2034 2216 
Q 1584 2216 1326 1975 
Q 1069 1734 1069 1313 
Q 1069 891 1326 650 
Q 1584 409 2034 409 
Q 2484 409 2743 651 
Q 3003 894 3003 1313 
Q 3003 1734 2745 1975 
Q 2488 2216 2034 2216 
z
M 1403 2484 
Q 997 2584 770 2862 
Q 544 3141 544 3541 
Q 544 4100 942 4425 
Q 1341 4750 2034 4750 
Q 2731 4750 3128 4425 
Q 3525 4100 3525 3541 
Q 3525 3141 3298 2862 
Q 3072 2584 2669 2484 
Q 3125 2378 3379 2068 
Q 3634 1759 3634 1313 
Q 3634 634 3220 271 
Q 2806 -91 2034 -91 
Q 1263 -91 848 271 
Q 434 634 434 1313 
Q 434 1759 690 2068 
Q 947 2378 1403 2484 
z
M 1172 3481 
Q 1172 3119 1398 2916 
Q 1625 2713 2034 2713 
Q 2441 2713 2670 2916 
Q 2900 3119 2900 3481 
Q 2900 3844 2670 4047 
Q 2441 4250 2034 4250 
Q 1625 4250 1398 4047 
Q 1172 3844 1172 3481 
z
" transform="scale(0.015625)"/>
       </defs>
       <use xlink:href="#DejaVuSans-30"/>
       <use xlink:href="#DejaVuSans-2e" x="63.623047"/>
       <use xlink:href="#DejaVuSans-38" x="95.410156"/>
      </g>
     </g>
    </g>
    <g id="ytick_6">
     <g id="line2d_12">
      <g>
       <use xlink:href="#m866c22532f" x="338.688" y="29.7813" style="stroke: #000000; stroke-width: 0.8"/>
      </g>
     </g>
     <g id="text_12">
      <!-- 1.0 -->
      <g transform="translate(315.784875 33.580519)scale(0.1 -0.1)">
       <use xlink:href="#DejaVuSans-31"/>
       <use xlink:href="#DejaVuSans-2e" x="63.623047"/>
       <use xlink:href="#DejaVuSans-30" x="95.410156"/>
      </g>
     </g>
    </g>
   </g>
   <g id="line2d_13">
    <path d="M 370.734545 29.7813 
L 409.1904 29.7813 
L 447.646255 199.88731 
L 1011.665455 199.88731 
L 1011.665455 199.88731 
" clip-path="url(#pa4f7326aba)" style="fill: none; stroke: #1f77b4; stroke-width: 2.5; stroke-linecap: square"/>
   </g>
   <g id="line2d_14">
    <path d="M 370.734545 199.88731 
L 415.599709 199.88731 
L 454.055564 29.7813 
L 498.920727 199.88731 
L 1011.665455 199.88731 
L 1011.665455 199.88731 
" clip-path="url(#pa4f7326aba)" style="fill: none; stroke: #ff7f0e; stroke-width: 2.5; stroke-linecap: square"/>
   </g>
   <g id="line2d_15">
    <path d="M 370.734545 199.88731 
L 466.874182 199.88731 
L 511.739345 29.7813 
L 563.013818 199.88731 
L 1011.665455 199.88731 
L 1011.665455 199.88731 
" clip-path="url(#pa4f7326aba)" style="fill: none; stroke: #2ca02c; stroke-width: 2.5; stroke-linecap: square"/>
   </g>
   <g id="line2d_16">
    <path d="M 370.734545 199.88731 
L 498.920727 199.88731 
L 563.013818 29.7813 
L 627.106909 199.88731 
L 1011.665455 199.88731 
L 1011.665455 199.88731 
" clip-path="url(#pa4f7326aba)" style="fill: none; stroke: #d62728; stroke-width: 2.5; stroke-linecap: square"/>
   </g>
   <g id="line2d_17">
    <path d="M 370.734545 199.88731 
L 563.013818 199.88731 
L 659.153455 29.7813 
L 755.293091 199.88731 
L 1011.665455 199.88731 
L 1011.665455 199.88731 
" clip-path="url(#pa4f7326aba)" style="fill: none; stroke: #9467bd; stroke-width: 2.5; stroke-linecap: square"/>
   </g>
   <g id="line2d_18">
    <path d="M 370.734545 199.88731 
L 627.106909 199.88731 
L 787.339636 29.7813 
L 1011.665455 29.7813 
L 1011.665455 29.7813 
" clip-path="url(#pa4f7326aba)" style="fill: none; stroke: #8c564b; stroke-width: 2.5; stroke-linecap: square"/>
   </g>
   <g id="patch_3">
    <path d="M 338.688 208.39261 
L 338.688 21.276 
" style="fill: none; stroke: #000000; stroke-width: 0.8; stroke-linejoin: miter; stroke-linecap: square"/>
   </g>
   <g id="patch_4">
    <path d="M 1043.712 208.39261 
L 1043.712 21.276 
" style="fill: none; stroke: #000000; stroke-width: 0.8; stroke-linejoin: miter; stroke-linecap: square"/>
   </g>
   <g id="patch_5">
    <path d="M 338.688 208.39261 
L 1043.712 208.39261 
" style="fill: none; stroke: #000000; stroke-width: 0.8; stroke-linejoin: miter; stroke-linecap: square"/>
   </g>
   <g id="patch_6">
    <path d="M 338.688 21.276 
L 1043.712 21.276 
" style="fill: none; stroke: #000000; stroke-width: 0.8; stroke-linejoin: miter; stroke-linecap: square"/>
   </g>
   <g id="text_13">
    <!-- Air Quality Index (AQI) -->
    <g transform="translate(624.107813 15.276)scale(0.12 -0.12)">
     <defs>
      <path id="DejaVuSans-41" d="M 2188 4044 
L 1331 1722 
L 3047 1722 
L 2188 4044 
z
M 1831 4666 
L 2547 4666 
L 4325 0 
L 3669 0 
L 3244 1197 
L 1141 1197 
L 716 0 
L 50 0 
L 1831 4666 
z
" transform="scale(0.015625)"/>
      <path id="DejaVuSans-69" d="M 603 3500 
L 1178 3500 
L 1178 0 
L 603 0 
L 603 3500 
z
M 603 4863 
L 1178 4863 
L 1178 4134 
L 603 4134 
L 603 4863 
z
" transform="scale(0.015625)"/>
      <path id="DejaVuSans-72" d="M 2631 2963 
Q 2534 3019 2420 3045 
Q 2306 3072 2169 3072 
Q 1681 3072 1420 2755 
Q 1159 2438 1159 1844 
L 1159 0 
L 581 0 
L 581 3500 
L 1159 3500 
L 1159 2956 
Q 1341 3275 1631 3429 
Q 1922 3584 2338 3584 
Q 2397 3584 2469 3576 
Q 2541 3569 2628 3553 
L 2631 2963 
z
" transform="scale(0.015625)"/>
      <path id="DejaVuSans-20" transform="scale(0.015625)"/>
      <path id="DejaVuSans-51" d="M 2522 4238 
Q 1834 4238 1429 3725 
Q 1025 3213 1025 2328 
Q 1025 1447 1429 934 
Q 1834 422 2522 422 
Q 3209 422 3611 934 
Q 4013 1447 4013 2328 
Q 4013 3213 3611 3725 
Q 3209 4238 2522 4238 
z
M 3406 84 
L 4238 -825 
L 3475 -825 
L 2784 -78 
Q 2681 -84 2626 -87 
Q 2572 -91 2522 -91 
Q 1538 -91 948 567 
Q 359 1225 359 2328 
Q 359 3434 948 4092 
Q 1538 4750 2522 4750 
Q 3503 4750 4090 4092 
Q 4678 3434 4678 2328 
Q 4678 1516 4351 937 
Q 4025 359 3406 84 
z
" transform="scale(0.015625)"/>
      <path id="DejaVuSans-75" d="M 544 1381 
L 544 3500 
L 1119 3500 
L 1119 1403 
Q 1119 906 1312 657 
Q 1506 409 1894 409 
Q 2359 409 2629 706 
Q 2900 1003 2900 1516 
L 2900 3500 
L 3475 3500 
L 3475 0 
L 2900 0 
L 2900 538 
Q 2691 219 2414 64 
Q 2138 -91 1772 -91 
Q 1169 -91 856 284 
Q 544 659 544 1381 
z
M 1991 3584 
L 1991 3584 
z
" transform="scale(0.015625)"/>
      <path id="DejaVuSans-61" d="M 2194 1759 
Q 1497 1759 1228 1600 
Q 959 1441 959 1056 
Q 959 750 1161 570 
Q 1363 391 1709 391 
Q 2188 391 2477 730 
Q 2766 1069 2766 1631 
L 2766 1759 
L 2194 1759 
z
M 3341 1997 
L 3341 0 
L 2766 0 
L 2766 531 
Q 2569 213 2275 61 
Q 1981 -91 1556 -91 
Q 1019 -91 701 211 
Q 384 513 384 1019 
Q 384 1609 779 1909 
Q 1175 2209 1959 2209 
L 2766 2209 
L 2766 2266 
Q 2766 2663 2505 2880 
Q 2244 3097 1772 3097 
Q 1472 3097 1187 3025 
Q 903 2953 641 2809 
L 641 3341 
Q 956 3463 1253 3523 
Q 1550 3584 1831 3584 
Q 2591 3584 2966 3190 
Q 3341 2797 3341 1997 
z
" transform="scale(0.015625)"/>
      <path id="DejaVuSans-6c" d="M 603 4863 
L 1178 4863 
L 1178 0 
L 603 0 
L 603 4863 
z
" transform="scale(0.015625)"/>
      <path id="DejaVuSans-74" d="M 1172 4494 
L 1172 3500 
L 2356 3500 
L 2356 3053 
L 1172 3053 
L 1172 1153 
Q 1172 725 1289 603 
Q 1406 481 1766 481 
L 2356 481 
L 2356 0 
L 1766 0 
Q 1100 0 847 248 
Q 594 497 594 1153 
L 594 3053 
L 172 3053 
L 172 3500 
L 594 3500 
L 594 4494 
L 1172 4494 
z
" transform="scale(0.015625)"/>
      <path id="DejaVuSans-79" d="M 2059 -325 
Q 1816 -950 1584 -1140 
Q 1353 -1331 966 -1331 
L 506 -1331 
L 506 -850 
L 844 -850 
Q 1081 -850 1212 -737 
Q 1344 -625 1503 -206 
L 1606 56 
L 191 3500 
L 800 3500 
L 1894 763 
L 2988 3500 
L 3597 3500 
L 2059 -325 
z
" transform="scale(0.015625)"/>
      <path id="DejaVuSans-49" d="M 628 4666 
L 1259 4666 
L 1259 0 
L 628 0 
L 628 4666 
z
" transform="scale(0.015625)"/>
      <path id="DejaVuSans-6e" d="M 3513 2113 
L 3513 0 
L 2938 0 
L 2938 2094 
Q 2938 2591 2744 2837 
Q 2550 3084 2163 3084 
Q 1697 3084 1428 2787 
Q 1159 2491 1159 1978 
L 1159 0 
L 581 0 
L 581 3500 
L 1159 3500 
L 1159 2956 
Q 1366 3272 1645 3428 
Q 1925 3584 2291 3584 
Q 2894 3584 3203 3211 
Q 3513 2838 3513 2113 
z
" transform="scale(0.015625)"/>
      <path id="DejaVuSans-64" d="M 2906 2969 
L 2906 4863 
L 3481 4863 
L 3481 0 
L 2906 0 
L 2906 525 
Q 2725 213 2448 61 
Q 2172 -91 1784 -91 
Q 1150 -91 751 415 
Q 353 922 353 1747 
Q 353 2572 751 3078 
Q 1150 3584 1784 3584 
Q 2172 3584 2448 3432 
Q 2725 3281 2906 2969 
z
M 947 1747 
Q 947 1113 1208 752 
Q 1469 391 1925 391 
Q 2381 391 2643 752 
Q 2906 1113 2906 1747 
Q 2906 2381 2643 2742 
Q 2381 3103 1925 3103 
Q 1469 3103 1208 2742 
Q 947 2381 947 1747 
z
" transform="scale(0.015625)"/>
      <path id="DejaVuSans-65" d="M 3597 1894 
L 3597 1613 
L 953 1613 
Q 991 1019 1311 708 
Q 1631 397 2203 397 
Q 2534 397 2845 478 
Q 3156 559 3463 722 
L 3463 178 
Q 3153 47 2828 -22 
Q 2503 -91 2169 -91 
Q 1331 -91 842 396 
Q 353 884 353 1716 
Q 353 2575 817 3079 
Q 1281 3584 2069 3584 
Q 2775 3584 3186 3129 
Q 3597 2675 3597 1894 
z
M 3022 2063 
Q 3016 2534 2758 2815 
Q 2500 3097 2075 3097 
Q 1594 3097 1305 2825 
Q 1016 2553 972 2059 
L 3022 2063 
z
" transform="scale(0.015625)"/>
      <path id="DejaVuSans-78" d="M 3513 3500 
L 2247 1797 
L 3578 0 
L 2900 0 
L 1881 1375 
L 863 0 
L 184 0 
L 1544 1831 
L 300 3500 
L 978 3500 
L 1906 2253 
L 2834 3500 
L 3513 3500 
z
" transform="scale(0.015625)"/>
      <path id="DejaVuSans-28" d="M 1984 4856 
Q 1566 4138 1362 3434 
Q 1159 2731 1159 2009 
Q 1159 1288 1364 580 
Q 1569 -128 1984 -844 
L 1484 -844 
Q 1016 -109 783 600 
Q 550 1309 550 2009 
Q 550 2706 781 3412 
Q 1013 4119 1484 4856 
L 1984 4856 
z
" transform="scale(0.015625)"/>
      <path id="DejaVuSans-29" d="M 513 4856 
L 1013 4856 
Q 1481 4119 1714 3412 
Q 1947 2706 1947 2009 
Q 1947 1309 1714 600 
Q 1481 -109 1013 -844 
L 513 -844 
Q 928 -128 1133 580 
Q 1338 1288 1338 2009 
Q 1338 2731 1133 3434 
Q 928 4138 513 4856 
z
" transform="scale(0.015625)"/>
     </defs>
     <use xlink:href="#DejaVuSans-41"/>
     <use xlink:href="#DejaVuSans-69" x="68.408203"/>
     <use xlink:href="#DejaVuSans-72" x="96.191406"/>
     <use xlink:href="#DejaVuSans-20" x="137.304688"/>
     <use xlink:href="#DejaVuSans-51" x="169.091797"/>
     <use xlink:href="#DejaVuSans-75" x="247.802734"/>
     <use xlink:href="#DejaVuSans-61" x="311.181641"/>
     <use xlink:href="#DejaVuSans-6c" x="372.460938"/>
     <use xlink:href="#DejaVuSans-69" x="400.244141"/>
     <use xlink:href="#DejaVuSans-74" x="428.027344"/>
     <use xlink:href="#DejaVuSans-79" x="467.236328"/>
     <use xlink:href="#DejaVuSans-20" x="526.416016"/>
     <use xlink:href="#DejaVuSans-49" x="558.203125"/>
     <use xlink:href="#DejaVuSans-6e" x="587.695312"/>
     <use xlink:href="#DejaVuSans-64" x="651.074219"/>
     <use xlink:href="#DejaVuSans-65" x="714.550781"/>
     <use xlink:href="#DejaVuSans-78" x="774.324219"/>
     <use xlink:href="#DejaVuSans-20" x="833.503906"/>
     <use xlink:href="#DejaVuSans-28" x="865.291016"/>
     <use xlink:href="#DejaVuSans-41" x="904.304688"/>
     <use xlink:href="#DejaVuSans-51" x="970.962891"/>
     <use xlink:href="#DejaVuSans-49" x="1049.673828"/>
     <use xlink:href="#DejaVuSans-29" x="1079.166016"/>
    </g>
   </g>
   <g id="legend_1">
    <g id="patch_7">
     <path d="M 856.701063 160.36868 
L 1036.712 160.36868 
Q 1038.712 160.36868 1038.712 158.36868 
L 1038.712 71.29993 
Q 1038.712 69.29993 1036.712 69.29993 
L 856.701063 69.29993 
Q 854.701063 69.29993 854.701063 71.29993 
L 854.701063 158.36868 
Q 854.701063 160.36868 856.701063 160.36868 
z
" style="fill: #ffffff; opacity: 0.8; stroke: #cccccc; stroke-linejoin: miter"/>
    </g>
    <g id="line2d_19">
     <path d="M 858.701063 77.398368 
L 868.701063 77.398368 
L 878.701063 77.398368 
" style="fill: none; stroke: #1f77b4; stroke-width: 2.5; stroke-linecap: square"/>
    </g>
    <g id="text_14">
     <!-- Good -->
     <g transform="translate(886.701063 80.898368)scale(0.1 -0.1)">
      <defs>
       <path id="DejaVuSans-47" d="M 3809 666 
L 3809 1919 
L 2778 1919 
L 2778 2438 
L 4434 2438 
L 4434 434 
Q 4069 175 3628 42 
Q 3188 -91 2688 -91 
Q 1594 -91 976 548 
Q 359 1188 359 2328 
Q 359 3472 976 4111 
Q 1594 4750 2688 4750 
Q 3144 4750 3555 4637 
Q 3966 4525 4313 4306 
L 4313 3634 
Q 3963 3931 3569 4081 
Q 3175 4231 2741 4231 
Q 1884 4231 1454 3753 
Q 1025 3275 1025 2328 
Q 1025 1384 1454 906 
Q 1884 428 2741 428 
Q 3075 428 3337 486 
Q 3600 544 3809 666 
z
" transform="scale(0.015625)"/>
       <path id="DejaVuSans-6f" d="M 1959 3097 
Q 1497 3097 1228 2736 
Q 959 2375 959 1747 
Q 959 1119 1226 758 
Q 1494 397 1959 397 
Q 2419 397 2687 759 
Q 2956 1122 2956 1747 
Q 2956 2369 2687 2733 
Q 2419 3097 1959 3097 
z
M 1959 3584 
Q 2709 3584 3137 3096 
Q 3566 2609 3566 1747 
Q 3566 888 3137 398 
Q 2709 -91 1959 -91 
Q 1206 -91 779 398 
Q 353 888 353 1747 
Q 353 2609 779 3096 
Q 1206 3584 1959 3584 
z
" transform="scale(0.015625)"/>
      </defs>
      <use xlink:href="#DejaVuSans-47"/>
      <use xlink:href="#DejaVuSans-6f" x="77.490234"/>
      <use xlink:href="#DejaVuSans-6f" x="138.671875"/>
      <use xlink:href="#DejaVuSans-64" x="199.853516"/>
     </g>
    </g>
    <g id="line2d_20">
     <path d="M 858.701063 92.076493 
L 868.701063 92.076493 
L 878.701063 92.076493 
" style="fill: none; stroke: #ff7f0e; stroke-width: 2.5; stroke-linecap: square"/>
    </g>
    <g id="text_15">
     <!-- Moderate -->
     <g transform="translate(886.701063 95.576493)scale(0.1 -0.1)">
      <defs>
       <path id="DejaVuSans-4d" d="M 628 4666 
L 1569 4666 
L 2759 1491 
L 3956 4666 
L 4897 4666 
L 4897 0 
L 4281 0 
L 4281 4097 
L 3078 897 
L 2444 897 
L 1241 4097 
L 1241 0 
L 628 0 
L 628 4666 
z
" transform="scale(0.015625)"/>
      </defs>
      <use xlink:href="#DejaVuSans-4d"/>
      <use xlink:href="#DejaVuSans-6f" x="86.279297"/>
      <use xlink:href="#DejaVuSans-64" x="147.460938"/>
      <use xlink:href="#DejaVuSans-65" x="210.9375"/>
      <use xlink:href="#DejaVuSans-72" x="272.460938"/>
      <use xlink:href="#DejaVuSans-61" x="313.574219"/>
      <use xlink:href="#DejaVuSans-74" x="374.853516"/>
      <use xlink:href="#DejaVuSans-65" x="414.0625"/>
     </g>
    </g>
    <g id="line2d_21">
     <path d="M 858.701063 106.754618 
L 868.701063 106.754618 
L 878.701063 106.754618 
" style="fill: none; stroke: #2ca02c; stroke-width: 2.5; stroke-linecap: square"/>
    </g>
    <g id="text_16">
     <!-- Unhealthy for sensitive group -->
     <g transform="translate(886.701063 110.254618)scale(0.1 -0.1)">
      <defs>
       <path id="DejaVuSans-55" d="M 556 4666 
L 1191 4666 
L 1191 1831 
Q 1191 1081 1462 751 
Q 1734 422 2344 422 
Q 2950 422 3222 751 
Q 3494 1081 3494 1831 
L 3494 4666 
L 4128 4666 
L 4128 1753 
Q 4128 841 3676 375 
Q 3225 -91 2344 -91 
Q 1459 -91 1007 375 
Q 556 841 556 1753 
L 556 4666 
z
" transform="scale(0.015625)"/>
       <path id="DejaVuSans-68" d="M 3513 2113 
L 3513 0 
L 2938 0 
L 2938 2094 
Q 2938 2591 2744 2837 
Q 2550 3084 2163 3084 
Q 1697 3084 1428 2787 
Q 1159 2491 1159 1978 
L 1159 0 
L 581 0 
L 581 4863 
L 1159 4863 
L 1159 2956 
Q 1366 3272 1645 3428 
Q 1925 3584 2291 3584 
Q 2894 3584 3203 3211 
Q 3513 2838 3513 2113 
z
" transform="scale(0.015625)"/>
       <path id="DejaVuSans-66" d="M 2375 4863 
L 2375 4384 
L 1825 4384 
Q 1516 4384 1395 4259 
Q 1275 4134 1275 3809 
L 1275 3500 
L 2222 3500 
L 2222 3053 
L 1275 3053 
L 1275 0 
L 697 0 
L 697 3053 
L 147 3053 
L 147 3500 
L 697 3500 
L 697 3744 
Q 697 4328 969 4595 
Q 1241 4863 1831 4863 
L 2375 4863 
z
" transform="scale(0.015625)"/>
       <path id="DejaVuSans-73" d="M 2834 3397 
L 2834 2853 
Q 2591 2978 2328 3040 
Q 2066 3103 1784 3103 
Q 1356 3103 1142 2972 
Q 928 2841 928 2578 
Q 928 2378 1081 2264 
Q 1234 2150 1697 2047 
L 1894 2003 
Q 2506 1872 2764 1633 
Q 3022 1394 3022 966 
Q 3022 478 2636 193 
Q 2250 -91 1575 -91 
Q 1294 -91 989 -36 
Q 684 19 347 128 
L 347 722 
Q 666 556 975 473 
Q 1284 391 1588 391 
Q 1994 391 2212 530 
Q 2431 669 2431 922 
Q 2431 1156 2273 1281 
Q 2116 1406 1581 1522 
L 1381 1569 
Q 847 1681 609 1914 
Q 372 2147 372 2553 
Q 372 3047 722 3315 
Q 1072 3584 1716 3584 
Q 2034 3584 2315 3537 
Q 2597 3491 2834 3397 
z
" transform="scale(0.015625)"/>
       <path id="DejaVuSans-76" d="M 191 3500 
L 800 3500 
L 1894 563 
L 2988 3500 
L 3597 3500 
L 2284 0 
L 1503 0 
L 191 3500 
z
" transform="scale(0.015625)"/>
       <path id="DejaVuSans-67" d="M 2906 1791 
Q 2906 2416 2648 2759 
Q 2391 3103 1925 3103 
Q 1463 3103 1205 2759 
Q 947 2416 947 1791 
Q 947 1169 1205 825 
Q 1463 481 1925 481 
Q 2391 481 2648 825 
Q 2906 1169 2906 1791 
z
M 3481 434 
Q 3481 -459 3084 -895 
Q 2688 -1331 1869 -1331 
Q 1566 -1331 1297 -1286 
Q 1028 -1241 775 -1147 
L 775 -588 
Q 1028 -725 1275 -790 
Q 1522 -856 1778 -856 
Q 2344 -856 2625 -561 
Q 2906 -266 2906 331 
L 2906 616 
Q 2728 306 2450 153 
Q 2172 0 1784 0 
Q 1141 0 747 490 
Q 353 981 353 1791 
Q 353 2603 747 3093 
Q 1141 3584 1784 3584 
Q 2172 3584 2450 3431 
Q 2728 3278 2906 2969 
L 2906 3500 
L 3481 3500 
L 3481 434 
z
" transform="scale(0.015625)"/>
       <path id="DejaVuSans-70" d="M 1159 525 
L 1159 -1331 
L 581 -1331 
L 581 3500 
L 1159 3500 
L 1159 2969 
Q 1341 3281 1617 3432 
Q 1894 3584 2278 3584 
Q 2916 3584 3314 3078 
Q 3713 2572 3713 1747 
Q 3713 922 3314 415 
Q 2916 -91 2278 -91 
Q 1894 -91 1617 61 
Q 1341 213 1159 525 
z
M 3116 1747 
Q 3116 2381 2855 2742 
Q 2594 3103 2138 3103 
Q 1681 3103 1420 2742 
Q 1159 2381 1159 1747 
Q 1159 1113 1420 752 
Q 1681 391 2138 391 
Q 2594 391 2855 752 
Q 3116 1113 3116 1747 
z
" transform="scale(0.015625)"/>
      </defs>
      <use xlink:href="#DejaVuSans-55"/>
      <use xlink:href="#DejaVuSans-6e" x="73.193359"/>
      <use xlink:href="#DejaVuSans-68" x="136.572266"/>
      <use xlink:href="#DejaVuSans-65" x="199.951172"/>
      <use xlink:href="#DejaVuSans-61" x="261.474609"/>
      <use xlink:href="#DejaVuSans-6c" x="322.753906"/>
      <use xlink:href="#DejaVuSans-74" x="350.537109"/>
      <use xlink:href="#DejaVuSans-68" x="389.746094"/>
      <use xlink:href="#DejaVuSans-79" x="453.125"/>
      <use xlink:href="#DejaVuSans-20" x="512.304688"/>
      <use xlink:href="#DejaVuSans-66" x="544.091797"/>
      <use xlink:href="#DejaVuSans-6f" x="579.296875"/>
      <use xlink:href="#DejaVuSans-72" x="640.478516"/>
      <use xlink:href="#DejaVuSans-20" x="681.591797"/>
      <use xlink:href="#DejaVuSans-73" x="713.378906"/>
      <use xlink:href="#DejaVuSans-65" x="765.478516"/>
      <use xlink:href="#DejaVuSans-6e" x="827.001953"/>
      <use xlink:href="#DejaVuSans-73" x="890.380859"/>
      <use xlink:href="#DejaVuSans-69" x="942.480469"/>
      <use xlink:href="#DejaVuSans-74" x="970.263672"/>
      <use xlink:href="#DejaVuSans-69" x="1009.472656"/>
      <use xlink:href="#DejaVuSans-76" x="1037.255859"/>
      <use xlink:href="#DejaVuSans-65" x="1096.435547"/>
      <use xlink:href="#DejaVuSans-20" x="1157.958984"/>
      <use xlink:href="#DejaVuSans-67" x="1189.746094"/>
      <use xlink:href="#DejaVuSans-72" x="1253.222656"/>
      <use xlink:href="#DejaVuSans-6f" x="1292.085938"/>
      <use xlink:href="#DejaVuSans-75" x="1353.267578"/>
      <use xlink:href="#DejaVuSans-70" x="1416.646484"/>
     </g>
    </g>
    <g id="line2d_22">
     <path d="M 858.701063 121.432743 
L 868.701063 121.432743 
L 878.701063 121.432743 
" style="fill: none; stroke: #d62728; stroke-width: 2.5; stroke-linecap: square"/>
    </g>
    <g id="text_17">
     <!-- Unhealthy -->
     <g transform="translate(886.701063 124.932743)scale(0.1 -0.1)">
      <use xlink:href="#DejaVuSans-55"/>
      <use xlink:href="#DejaVuSans-6e" x="73.193359"/>
      <use xlink:href="#DejaVuSans-68" x="136.572266"/>
      <use xlink:href="#DejaVuSans-65" x="199.951172"/>
      <use xlink:href="#DejaVuSans-61" x="261.474609"/>
      <use xlink:href="#DejaVuSans-6c" x="322.753906"/>
      <use xlink:href="#DejaVuSans-74" x="350.537109"/>
      <use xlink:href="#DejaVuSans-68" x="389.746094"/>
      <use xlink:href="#DejaVuSans-79" x="453.125"/>
     </g>
    </g>
    <g id="line2d_23">
     <path d="M 858.701063 136.110868 
L 868.701063 136.110868 
L 878.701063 136.110868 
" style="fill: none; stroke: #9467bd; stroke-width: 2.5; stroke-linecap: square"/>
    </g>
    <g id="text_18">
     <!-- Very unhealthy -->
     <g transform="translate(886.701063 139.610868)scale(0.1 -0.1)">
      <defs>
       <path id="DejaVuSans-56" d="M 1831 0 
L 50 4666 
L 709 4666 
L 2188 738 
L 3669 4666 
L 4325 4666 
L 2547 0 
L 1831 0 
z
" transform="scale(0.015625)"/>
      </defs>
      <use xlink:href="#DejaVuSans-56"/>
      <use xlink:href="#DejaVuSans-65" x="60.658203"/>
      <use xlink:href="#DejaVuSans-72" x="122.181641"/>
      <use xlink:href="#DejaVuSans-79" x="163.294922"/>
      <use xlink:href="#DejaVuSans-20" x="222.474609"/>
      <use xlink:href="#DejaVuSans-75" x="254.261719"/>
      <use xlink:href="#DejaVuSans-6e" x="317.640625"/>
      <use xlink:href="#DejaVuSans-68" x="381.019531"/>
      <use xlink:href="#DejaVuSans-65" x="444.398438"/>
      <use xlink:href="#DejaVuSans-61" x="505.921875"/>
      <use xlink:href="#DejaVuSans-6c" x="567.201172"/>
      <use xlink:href="#DejaVuSans-74" x="594.984375"/>
      <use xlink:href="#DejaVuSans-68" x="634.193359"/>
      <use xlink:href="#DejaVuSans-79" x="697.572266"/>
     </g>
    </g>
    <g id="line2d_24">
     <path d="M 858.701063 150.788993 
L 868.701063 150.788993 
L 878.701063 150.788993 
" style="fill: none; stroke: #8c564b; stroke-width: 2.5; stroke-linecap: square"/>
    </g>
    <g id="text_19">
     <!-- Hazardous -->
     <g transform="translate(886.701063 154.288993)scale(0.1 -0.1)">
      <defs>
       <path id="DejaVuSans-48" d="M 628 4666 
L 1259 4666 
L 1259 2753 
L 3553 2753 
L 3553 4666 
L 4184 4666 
L 4184 0 
L 3553 0 
L 3553 2222 
L 1259 2222 
L 1259 0 
L 628 0 
L 628 4666 
z
" transform="scale(0.015625)"/>
       <path id="DejaVuSans-7a" d="M 353 3500 
L 3084 3500 
L 3084 2975 
L 922 459 
L 3084 459 
L 3084 0 
L 275 0 
L 275 525 
L 2438 3041 
L 353 3041 
L 353 3500 
z
" transform="scale(0.015625)"/>
      </defs>
      <use xlink:href="#DejaVuSans-48"/>
      <use xlink:href="#DejaVuSans-61" x="75.195312"/>
      <use xlink:href="#DejaVuSans-7a" x="136.474609"/>
      <use xlink:href="#DejaVuSans-61" x="188.964844"/>
      <use xlink:href="#DejaVuSans-72" x="250.244141"/>
      <use xlink:href="#DejaVuSans-64" x="289.607422"/>
      <use xlink:href="#DejaVuSans-6f" x="353.083984"/>
      <use xlink:href="#DejaVuSans-75" x="414.265625"/>
      <use xlink:href="#DejaVuSans-73" x="477.644531"/>
     </g>
    </g>
   </g>
  </g>
  <g id="axes_2">
   <g id="patch_8">
    <path d="M 338.688 446.030705 
L 1043.712 446.030705 
L 1043.712 258.914095 
L 338.688 258.914095 
z
" style="fill: #ffffff"/>
   </g>
   <g id="matplotlib.axis_3">
    <g id="xtick_7">
     <g id="line2d_25">
      <g>
       <use xlink:href="#m611a235ee1" x="370.734545" y="446.030705" style="stroke: #000000; stroke-width: 0.8"/>
      </g>
     </g>
     <g id="text_20">
      <!-- 0 -->
      <g transform="translate(367.553295 460.629143)scale(0.1 -0.1)">
       <use xlink:href="#DejaVuSans-30"/>
      </g>
     </g>
    </g>
    <g id="xtick_8">
     <g id="line2d_26">
      <g>
       <use xlink:href="#m611a235ee1" x="498.920727" y="446.030705" style="stroke: #000000; stroke-width: 0.8"/>
      </g>
     </g>
     <g id="text_21">
      <!-- 20 -->
      <g transform="translate(492.558227 460.629143)scale(0.1 -0.1)">
       <use xlink:href="#DejaVuSans-32"/>
       <use xlink:href="#DejaVuSans-30" x="63.623047"/>
      </g>
     </g>
    </g>
    <g id="xtick_9">
     <g id="line2d_27">
      <g>
       <use xlink:href="#m611a235ee1" x="627.106909" y="446.030705" style="stroke: #000000; stroke-width: 0.8"/>
      </g>
     </g>
     <g id="text_22">
      <!-- 40 -->
      <g transform="translate(620.744409 460.629143)scale(0.1 -0.1)">
       <use xlink:href="#DejaVuSans-34"/>
       <use xlink:href="#DejaVuSans-30" x="63.623047"/>
      </g>
     </g>
    </g>
    <g id="xtick_10">
     <g id="line2d_28">
      <g>
       <use xlink:href="#m611a235ee1" x="755.293091" y="446.030705" style="stroke: #000000; stroke-width: 0.8"/>
      </g>
     </g>
     <g id="text_23">
      <!-- 60 -->
      <g transform="translate(748.930591 460.629143)scale(0.1 -0.1)">
       <use xlink:href="#DejaVuSans-36"/>
       <use xlink:href="#DejaVuSans-30" x="63.623047"/>
      </g>
     </g>
    </g>
    <g id="xtick_11">
     <g id="line2d_29">
      <g>
       <use xlink:href="#m611a235ee1" x="883.479273" y="446.030705" style="stroke: #000000; stroke-width: 0.8"/>
      </g>
     </g>
     <g id="text_24">
      <!-- 80 -->
      <g transform="translate(877.116773 460.629143)scale(0.1 -0.1)">
       <use xlink:href="#DejaVuSans-38"/>
       <use xlink:href="#DejaVuSans-30" x="63.623047"/>
      </g>
     </g>
    </g>
    <g id="xtick_12">
     <g id="line2d_30">
      <g>
       <use xlink:href="#m611a235ee1" x="1011.665455" y="446.030705" style="stroke: #000000; stroke-width: 0.8"/>
      </g>
     </g>
     <g id="text_25">
      <!-- 100 -->
      <g transform="translate(1002.121705 460.629143)scale(0.1 -0.1)">
       <use xlink:href="#DejaVuSans-31"/>
       <use xlink:href="#DejaVuSans-30" x="63.623047"/>
       <use xlink:href="#DejaVuSans-30" x="127.246094"/>
      </g>
     </g>
    </g>
   </g>
   <g id="matplotlib.axis_4">
    <g id="ytick_7">
     <g id="line2d_31">
      <g>
       <use xlink:href="#m866c22532f" x="338.688" y="437.525405" style="stroke: #000000; stroke-width: 0.8"/>
      </g>
     </g>
     <g id="text_26">
      <!-- 0.0 -->
      <g transform="translate(315.784875 441.324623)scale(0.1 -0.1)">
       <use xlink:href="#DejaVuSans-30"/>
       <use xlink:href="#DejaVuSans-2e" x="63.623047"/>
       <use xlink:href="#DejaVuSans-30" x="95.410156"/>
      </g>
     </g>
    </g>
    <g id="ytick_8">
     <g id="line2d_32">
      <g>
       <use xlink:href="#m866c22532f" x="338.688" y="403.504203" style="stroke: #000000; stroke-width: 0.8"/>
      </g>
     </g>
     <g id="text_27">
      <!-- 0.2 -->
      <g transform="translate(315.784875 407.303422)scale(0.1 -0.1)">
       <use xlink:href="#DejaVuSans-30"/>
       <use xlink:href="#DejaVuSans-2e" x="63.623047"/>
       <use xlink:href="#DejaVuSans-32" x="95.410156"/>
      </g>
     </g>
    </g>
    <g id="ytick_9">
     <g id="line2d_33">
      <g>
       <use xlink:href="#m866c22532f" x="338.688" y="369.483001" style="stroke: #000000; stroke-width: 0.8"/>
      </g>
     </g>
     <g id="text_28">
      <!-- 0.4 -->
      <g transform="translate(315.784875 373.28222)scale(0.1 -0.1)">
       <use xlink:href="#DejaVuSans-30"/>
       <use xlink:href="#DejaVuSans-2e" x="63.623047"/>
       <use xlink:href="#DejaVuSans-34" x="95.410156"/>
      </g>
     </g>
    </g>
    <g id="ytick_10">
     <g id="line2d_34">
      <g>
       <use xlink:href="#m866c22532f" x="338.688" y="335.461799" style="stroke: #000000; stroke-width: 0.8"/>
      </g>
     </g>
     <g id="text_29">
      <!-- 0.6 -->
      <g transform="translate(315.784875 339.261018)scale(0.1 -0.1)">
       <use xlink:href="#DejaVuSans-30"/>
       <use xlink:href="#DejaVuSans-2e" x="63.623047"/>
       <use xlink:href="#DejaVuSans-36" x="95.410156"/>
      </g>
     </g>
    </g>
    <g id="ytick_11">
     <g id="line2d_35">
      <g>
       <use xlink:href="#m866c22532f" x="338.688" y="301.440597" style="stroke: #000000; stroke-width: 0.8"/>
      </g>
     </g>
     <g id="text_30">
      <!-- 0.8 -->
      <g transform="translate(315.784875 305.239816)scale(0.1 -0.1)">
       <use xlink:href="#DejaVuSans-30"/>
       <use xlink:href="#DejaVuSans-2e" x="63.623047"/>
       <use xlink:href="#DejaVuSans-38" x="95.410156"/>
      </g>
     </g>
    </g>
    <g id="ytick_12">
     <g id="line2d_36">
      <g>
       <use xlink:href="#m866c22532f" x="338.688" y="267.419395" style="stroke: #000000; stroke-width: 0.8"/>
      </g>
     </g>
     <g id="text_31">
      <!-- 1.0 -->
      <g transform="translate(315.784875 271.218614)scale(0.1 -0.1)">
       <use xlink:href="#DejaVuSans-31"/>
       <use xlink:href="#DejaVuSans-2e" x="63.623047"/>
       <use xlink:href="#DejaVuSans-30" x="95.410156"/>
      </g>
     </g>
    </g>
   </g>
   <g id="line2d_37">
    <path d="M 370.734545 267.419395 
L 377.143855 267.419395 
L 383.553164 267.419395 
L 389.962473 267.419395 
L 396.371782 267.419395 
L 402.781091 267.419395 
L 409.1904 267.419395 
L 415.599709 267.419395 
L 422.009018 267.419395 
L 428.418327 267.419395 
L 434.827636 267.419395 
L 441.236945 267.419395 
L 447.646255 267.419395 
L 454.055564 267.419395 
L 460.464873 267.419395 
L 466.874182 267.419395 
L 473.283491 267.419395 
L 479.6928 267.419395 
L 486.102109 267.419395 
L 492.511418 267.419395 
L 498.920727 267.419395 
L 505.330036 275.924696 
L 511.739345 284.429996 
L 518.148655 292.935297 
L 524.557964 301.440597 
L 530.967273 309.945898 
L 537.376582 318.451198 
L 543.785891 326.956499 
L 550.1952 335.461799 
L 556.604509 343.9671 
L 563.013818 352.4724 
L 569.423127 360.9777 
L 575.832436 369.483001 
L 582.241745 377.988301 
L 588.651055 386.493602 
L 595.060364 394.998902 
L 601.469673 403.504203 
L 607.878982 412.009503 
L 614.288291 420.514804 
L 620.6976 429.020104 
L 627.106909 437.525405 
L 633.516218 437.525405 
L 639.925527 437.525405 
L 646.334836 437.525405 
L 652.744145 437.525405 
L 659.153455 437.525405 
L 665.562764 437.525405 
L 671.972073 437.525405 
L 678.381382 437.525405 
L 684.790691 437.525405 
L 691.2 437.525405 
L 697.609309 437.525405 
L 704.018618 437.525405 
L 710.427927 437.525405 
L 716.837236 437.525405 
L 723.246545 437.525405 
L 729.655855 437.525405 
L 736.065164 437.525405 
L 742.474473 437.525405 
L 748.883782 437.525405 
L 755.293091 437.525405 
L 761.7024 437.525405 
L 768.111709 437.525405 
L 774.521018 437.525405 
L 780.930327 437.525405 
L 787.339636 437.525405 
L 793.748945 437.525405 
L 800.158255 437.525405 
L 806.567564 437.525405 
L 812.976873 437.525405 
L 819.386182 437.525405 
L 825.795491 437.525405 
L 832.2048 437.525405 
L 838.614109 437.525405 
L 845.023418 437.525405 
L 851.432727 437.525405 
L 857.842036 437.525405 
L 864.251345 437.525405 
L 870.660655 437.525405 
L 877.069964 437.525405 
L 883.479273 437.525405 
L 889.888582 437.525405 
L 896.297891 437.525405 
L 902.7072 437.525405 
L 909.116509 437.525405 
L 915.525818 437.525405 
L 921.935127 437.525405 
L 928.344436 437.525405 
L 934.753745 437.525405 
L 941.163055 437.525405 
L 947.572364 437.525405 
L 953.981673 437.525405 
L 960.390982 437.525405 
L 966.800291 437.525405 
L 973.2096 437.525405 
L 979.618909 437.525405 
L 986.028218 437.525405 
L 992.437527 437.525405 
L 998.846836 437.525405 
L 1005.256145 437.525405 
L 1011.665455 437.525405 
" clip-path="url(#pac83113f28)" style="fill: none; stroke: #1f77b4; stroke-width: 2.5; stroke-linecap: square"/>
   </g>
   <g id="line2d_38">
    <path d="M 370.734545 437.525405 
L 377.143855 437.525405 
L 383.553164 437.525405 
L 389.962473 437.525405 
L 396.371782 437.525405 
L 402.781091 437.525405 
L 409.1904 437.525405 
L 415.599709 437.525405 
L 422.009018 437.525405 
L 428.418327 437.525405 
L 434.827636 437.525405 
L 441.236945 437.525405 
L 447.646255 437.525405 
L 454.055564 437.525405 
L 460.464873 437.525405 
L 466.874182 437.525405 
L 473.283491 437.525405 
L 479.6928 437.525405 
L 486.102109 437.525405 
L 492.511418 437.525405 
L 498.920727 437.525405 
L 505.330036 431.855204 
L 511.739345 426.185004 
L 518.148655 420.514804 
L 524.557964 414.844603 
L 530.967273 409.174403 
L 537.376582 403.504203 
L 543.785891 397.834002 
L 550.1952 392.163802 
L 556.604509 386.493602 
L 563.013818 380.823402 
L 569.423127 375.153201 
L 575.832436 369.483001 
L 582.241745 363.812801 
L 588.651055 358.1426 
L 595.060364 352.4724 
L 601.469673 346.8022 
L 607.878982 341.131999 
L 614.288291 335.461799 
L 620.6976 329.791599 
L 627.106909 324.121398 
L 633.516218 318.451198 
L 639.925527 312.780998 
L 646.334836 307.110798 
L 652.744145 301.440597 
L 659.153455 295.770397 
L 665.562764 290.100197 
L 671.972073 284.429996 
L 678.381382 278.759796 
L 684.790691 273.089596 
L 691.2 267.419395 
L 697.609309 275.924696 
L 704.018618 284.429996 
L 710.427927 292.935297 
L 716.837236 301.440597 
L 723.246545 309.945898 
L 729.655855 318.451198 
L 736.065164 326.956499 
L 742.474473 335.461799 
L 748.883782 343.9671 
L 755.293091 352.4724 
L 761.7024 360.9777 
L 768.111709 369.483001 
L 774.521018 377.988301 
L 780.930327 386.493602 
L 787.339636 394.998902 
L 793.748945 403.504203 
L 800.158255 412.009503 
L 806.567564 420.514804 
L 812.976873 429.020104 
L 819.386182 437.525405 
L 825.795491 437.525405 
L 832.2048 437.525405 
L 838.614109 437.525405 
L 845.023418 437.525405 
L 851.432727 437.525405 
L 857.842036 437.525405 
L 864.251345 437.525405 
L 870.660655 437.525405 
L 877.069964 437.525405 
L 883.479273 437.525405 
L 889.888582 437.525405 
L 896.297891 437.525405 
L 902.7072 437.525405 
L 909.116509 437.525405 
L 915.525818 437.525405 
L 921.935127 437.525405 
L 928.344436 437.525405 
L 934.753745 437.525405 
L 941.163055 437.525405 
L 947.572364 437.525405 
L 953.981673 437.525405 
L 960.390982 437.525405 
L 966.800291 437.525405 
L 973.2096 437.525405 
L 979.618909 437.525405 
L 986.028218 437.525405 
L 992.437527 437.525405 
L 998.846836 437.525405 
L 1005.256145 437.525405 
L 1011.665455 437.525405 
" clip-path="url(#pac83113f28)" style="fill: none; stroke: #ff7f0e; stroke-width: 2.5; stroke-linecap: square"/>
   </g>
   <g id="line2d_39">
    <path d="M 370.734545 437.525405 
L 377.143855 437.525405 
L 383.553164 437.525405 
L 389.962473 437.525405 
L 396.371782 437.525405 
L 402.781091 437.525405 
L 409.1904 437.525405 
L 415.599709 437.525405 
L 422.009018 437.525405 
L 428.418327 437.525405 
L 434.827636 437.525405 
L 441.236945 437.525405 
L 447.646255 437.525405 
L 454.055564 437.525405 
L 460.464873 437.525405 
L 466.874182 437.525405 
L 473.283491 437.525405 
L 479.6928 437.525405 
L 486.102109 437.525405 
L 492.511418 437.525405 
L 498.920727 437.525405 
L 505.330036 437.525405 
L 511.739345 437.525405 
L 518.148655 437.525405 
L 524.557964 437.525405 
L 530.967273 437.525405 
L 537.376582 437.525405 
L 543.785891 437.525405 
L 550.1952 437.525405 
L 556.604509 437.525405 
L 563.013818 437.525405 
L 569.423127 437.525405 
L 575.832436 437.525405 
L 582.241745 437.525405 
L 588.651055 437.525405 
L 595.060364 437.525405 
L 601.469673 437.525405 
L 607.878982 437.525405 
L 614.288291 437.525405 
L 620.6976 437.525405 
L 627.106909 437.525405 
L 633.516218 437.525405 
L 639.925527 437.525405 
L 646.334836 437.525405 
L 652.744145 437.525405 
L 659.153455 437.525405 
L 665.562764 437.525405 
L 671.972073 437.525405 
L 678.381382 437.525405 
L 684.790691 437.525405 
L 691.2 437.525405 
L 697.609309 437.525405 
L 704.018618 437.525405 
L 710.427927 437.525405 
L 716.837236 437.525405 
L 723.246545 437.525405 
L 729.655855 437.525405 
L 736.065164 437.525405 
L 742.474473 437.525405 
L 748.883782 437.525405 
L 755.293091 437.525405 
L 761.7024 433.272754 
L 768.111709 429.020104 
L 774.521018 424.767454 
L 780.930327 420.514804 
L 787.339636 416.262153 
L 793.748945 412.009503 
L 800.158255 407.756853 
L 806.567564 403.504203 
L 812.976873 399.251553 
L 819.386182 394.998902 
L 825.795491 390.746252 
L 832.2048 386.493602 
L 838.614109 382.240952 
L 845.023418 377.988301 
L 851.432727 373.735651 
L 857.842036 369.483001 
L 864.251345 365.230351 
L 870.660655 360.9777 
L 877.069964 356.72505 
L 883.479273 352.4724 
L 889.888582 348.21975 
L 896.297891 343.9671 
L 902.7072 339.714449 
L 909.116509 335.461799 
L 915.525818 331.209149 
L 921.935127 326.956499 
L 928.344436 322.703848 
L 934.753745 318.451198 
L 941.163055 314.198548 
L 947.572364 309.945898 
L 953.981673 305.693247 
L 960.390982 301.440597 
L 966.800291 297.187947 
L 973.2096 292.935297 
L 979.618909 288.682647 
L 986.028218 284.429996 
L 992.437527 280.177346 
L 998.846836 275.924696 
L 1005.256145 271.672046 
L 1011.665455 267.419395 
" clip-path="url(#pac83113f28)" style="fill: none; stroke: #2ca02c; stroke-width: 2.5; stroke-linecap: square"/>
   </g>
   <g id="patch_9">
    <path d="M 338.688 446.030705 
L 338.688 258.914095 
" style="fill: none; stroke: #000000; stroke-width: 0.8; stroke-linejoin: miter; stroke-linecap: square"/>
   </g>
   <g id="patch_10">
    <path d="M 1043.712 446.030705 
L 1043.712 258.914095 
" style="fill: none; stroke: #000000; stroke-width: 0.8; stroke-linejoin: miter; stroke-linecap: square"/>
   </g>
   <g id="patch_11">
    <path d="M 338.688 446.030705 
L 1043.712 446.030705 
" style="fill: none; stroke: #000000; stroke-width: 0.8; stroke-linejoin: miter; stroke-linecap: square"/>
   </g>
   <g id="patch_12">
    <path d="M 338.688 258.914095 
L 1043.712 258.914095 
" style="fill: none; stroke: #000000; stroke-width: 0.8; stroke-linejoin: miter; stroke-linecap: square"/>
   </g>
   <g id="text_32">
    <!-- Air Filter Flowrate (%) -->
    <g transform="translate(626.115 252.914095)scale(0.12 -0.12)">
     <defs>
      <path id="DejaVuSans-46" d="M 628 4666 
L 3309 4666 
L 3309 4134 
L 1259 4134 
L 1259 2759 
L 3109 2759 
L 3109 2228 
L 1259 2228 
L 1259 0 
L 628 0 
L 628 4666 
z
" transform="scale(0.015625)"/>
      <path id="DejaVuSans-77" d="M 269 3500 
L 844 3500 
L 1563 769 
L 2278 3500 
L 2956 3500 
L 3675 769 
L 4391 3500 
L 4966 3500 
L 4050 0 
L 3372 0 
L 2619 2869 
L 1863 0 
L 1184 0 
L 269 3500 
z
" transform="scale(0.015625)"/>
      <path id="DejaVuSans-25" d="M 4653 2053 
Q 4381 2053 4226 1822 
Q 4072 1591 4072 1178 
Q 4072 772 4226 539 
Q 4381 306 4653 306 
Q 4919 306 5073 539 
Q 5228 772 5228 1178 
Q 5228 1588 5073 1820 
Q 4919 2053 4653 2053 
z
M 4653 2450 
Q 5147 2450 5437 2106 
Q 5728 1763 5728 1178 
Q 5728 594 5436 251 
Q 5144 -91 4653 -91 
Q 4153 -91 3862 251 
Q 3572 594 3572 1178 
Q 3572 1766 3864 2108 
Q 4156 2450 4653 2450 
z
M 1428 4353 
Q 1159 4353 1004 4120 
Q 850 3888 850 3481 
Q 850 3069 1003 2837 
Q 1156 2606 1428 2606 
Q 1700 2606 1854 2837 
Q 2009 3069 2009 3481 
Q 2009 3884 1853 4118 
Q 1697 4353 1428 4353 
z
M 4250 4750 
L 4750 4750 
L 1831 -91 
L 1331 -91 
L 4250 4750 
z
M 1428 4750 
Q 1922 4750 2215 4408 
Q 2509 4066 2509 3481 
Q 2509 2891 2217 2550 
Q 1925 2209 1428 2209 
Q 931 2209 642 2551 
Q 353 2894 353 3481 
Q 353 4063 643 4406 
Q 934 4750 1428 4750 
z
" transform="scale(0.015625)"/>
     </defs>
     <use xlink:href="#DejaVuSans-41"/>
     <use xlink:href="#DejaVuSans-69" x="68.408203"/>
     <use xlink:href="#DejaVuSans-72" x="96.191406"/>
     <use xlink:href="#DejaVuSans-20" x="137.304688"/>
     <use xlink:href="#DejaVuSans-46" x="169.091797"/>
     <use xlink:href="#DejaVuSans-69" x="219.361328"/>
     <use xlink:href="#DejaVuSans-6c" x="247.144531"/>
     <use xlink:href="#DejaVuSans-74" x="274.927734"/>
     <use xlink:href="#DejaVuSans-65" x="314.136719"/>
     <use xlink:href="#DejaVuSans-72" x="375.660156"/>
     <use xlink:href="#DejaVuSans-20" x="416.773438"/>
     <use xlink:href="#DejaVuSans-46" x="448.560547"/>
     <use xlink:href="#DejaVuSans-6c" x="506.080078"/>
     <use xlink:href="#DejaVuSans-6f" x="533.863281"/>
     <use xlink:href="#DejaVuSans-77" x="595.044922"/>
     <use xlink:href="#DejaVuSans-72" x="676.832031"/>
     <use xlink:href="#DejaVuSans-61" x="717.945312"/>
     <use xlink:href="#DejaVuSans-74" x="779.224609"/>
     <use xlink:href="#DejaVuSans-65" x="818.433594"/>
     <use xlink:href="#DejaVuSans-20" x="879.957031"/>
     <use xlink:href="#DejaVuSans-28" x="911.744141"/>
     <use xlink:href="#DejaVuSans-25" x="950.757812"/>
     <use xlink:href="#DejaVuSans-29" x="1045.777344"/>
    </g>
   </g>
   <g id="legend_2">
    <g id="patch_13">
     <path d="M 964.726063 375.989587 
L 1036.712 375.989587 
Q 1038.712 375.989587 1038.712 373.989587 
L 1038.712 330.955212 
Q 1038.712 328.955212 1036.712 328.955212 
L 964.726063 328.955212 
Q 962.726063 328.955212 962.726063 330.955212 
L 962.726063 373.989587 
Q 962.726063 375.989587 964.726063 375.989587 
z
" style="fill: #ffffff; opacity: 0.8; stroke: #cccccc; stroke-linejoin: miter"/>
    </g>
    <g id="line2d_40">
     <path d="M 966.726063 337.05365 
L 976.726063 337.05365 
L 986.726063 337.05365 
" style="fill: none; stroke: #1f77b4; stroke-width: 2.5; stroke-linecap: square"/>
    </g>
    <g id="text_33">
     <!-- Low -->
     <g transform="translate(994.726063 340.55365)scale(0.1 -0.1)">
      <defs>
       <path id="DejaVuSans-4c" d="M 628 4666 
L 1259 4666 
L 1259 531 
L 3531 531 
L 3531 0 
L 628 0 
L 628 4666 
z
" transform="scale(0.015625)"/>
      </defs>
      <use xlink:href="#DejaVuSans-4c"/>
      <use xlink:href="#DejaVuSans-6f" x="53.962891"/>
      <use xlink:href="#DejaVuSans-77" x="115.144531"/>
     </g>
    </g>
    <g id="line2d_41">
     <path d="M 966.726063 351.731775 
L 976.726063 351.731775 
L 986.726063 351.731775 
" style="fill: none; stroke: #ff7f0e; stroke-width: 2.5; stroke-linecap: square"/>
    </g>
    <g id="text_34">
     <!-- Medium -->
     <g transform="translate(994.726063 355.231775)scale(0.1 -0.1)">
      <defs>
       <path id="DejaVuSans-6d" d="M 3328 2828 
Q 3544 3216 3844 3400 
Q 4144 3584 4550 3584 
Q 5097 3584 5394 3201 
Q 5691 2819 5691 2113 
L 5691 0 
L 5113 0 
L 5113 2094 
Q 5113 2597 4934 2840 
Q 4756 3084 4391 3084 
Q 3944 3084 3684 2787 
Q 3425 2491 3425 1978 
L 3425 0 
L 2847 0 
L 2847 2094 
Q 2847 2600 2669 2842 
Q 2491 3084 2119 3084 
Q 1678 3084 1418 2786 
Q 1159 2488 1159 1978 
L 1159 0 
L 581 0 
L 581 3500 
L 1159 3500 
L 1159 2956 
Q 1356 3278 1631 3431 
Q 1906 3584 2284 3584 
Q 2666 3584 2933 3390 
Q 3200 3197 3328 2828 
z
" transform="scale(0.015625)"/>
      </defs>
      <use xlink:href="#DejaVuSans-4d"/>
      <use xlink:href="#DejaVuSans-65" x="86.279297"/>
      <use xlink:href="#DejaVuSans-64" x="147.802734"/>
      <use xlink:href="#DejaVuSans-69" x="211.279297"/>
      <use xlink:href="#DejaVuSans-75" x="239.0625"/>
      <use xlink:href="#DejaVuSans-6d" x="302.441406"/>
     </g>
    </g>
    <g id="line2d_42">
     <path d="M 966.726063 366.4099 
L 976.726063 366.4099 
L 986.726063 366.4099 
" style="fill: none; stroke: #2ca02c; stroke-width: 2.5; stroke-linecap: square"/>
    </g>
    <g id="text_35">
     <!-- High -->
     <g transform="translate(994.726063 369.9099)scale(0.1 -0.1)">
      <use xlink:href="#DejaVuSans-48"/>
      <use xlink:href="#DejaVuSans-69" x="75.195312"/>
      <use xlink:href="#DejaVuSans-67" x="102.978516"/>
      <use xlink:href="#DejaVuSans-68" x="166.455078"/>
     </g>
    </g>
   </g>
  </g>
  <g id="axes_3">
   <g id="patch_14">
    <path d="M 338.688 683.6688 
L 1043.712 683.6688 
L 1043.712 496.55219 
L 338.688 496.55219 
z
" style="fill: #ffffff"/>
   </g>
   <g id="matplotlib.axis_5">
    <g id="xtick_13">
     <g id="line2d_43">
      <g>
       <use xlink:href="#m611a235ee1" x="370.734545" y="683.6688" style="stroke: #000000; stroke-width: 0.8"/>
      </g>
     </g>
     <g id="text_36">
      <!-- 0 -->
      <g transform="translate(367.553295 698.267237)scale(0.1 -0.1)">
       <use xlink:href="#DejaVuSans-30"/>
      </g>
     </g>
    </g>
    <g id="xtick_14">
     <g id="line2d_44">
      <g>
       <use xlink:href="#m611a235ee1" x="498.920727" y="683.6688" style="stroke: #000000; stroke-width: 0.8"/>
      </g>
     </g>
     <g id="text_37">
      <!-- 20 -->
      <g transform="translate(492.558227 698.267237)scale(0.1 -0.1)">
       <use xlink:href="#DejaVuSans-32"/>
       <use xlink:href="#DejaVuSans-30" x="63.623047"/>
      </g>
     </g>
    </g>
    <g id="xtick_15">
     <g id="line2d_45">
      <g>
       <use xlink:href="#m611a235ee1" x="627.106909" y="683.6688" style="stroke: #000000; stroke-width: 0.8"/>
      </g>
     </g>
     <g id="text_38">
      <!-- 40 -->
      <g transform="translate(620.744409 698.267237)scale(0.1 -0.1)">
       <use xlink:href="#DejaVuSans-34"/>
       <use xlink:href="#DejaVuSans-30" x="63.623047"/>
      </g>
     </g>
    </g>
    <g id="xtick_16">
     <g id="line2d_46">
      <g>
       <use xlink:href="#m611a235ee1" x="755.293091" y="683.6688" style="stroke: #000000; stroke-width: 0.8"/>
      </g>
     </g>
     <g id="text_39">
      <!-- 60 -->
      <g transform="translate(748.930591 698.267237)scale(0.1 -0.1)">
       <use xlink:href="#DejaVuSans-36"/>
       <use xlink:href="#DejaVuSans-30" x="63.623047"/>
      </g>
     </g>
    </g>
    <g id="xtick_17">
     <g id="line2d_47">
      <g>
       <use xlink:href="#m611a235ee1" x="883.479273" y="683.6688" style="stroke: #000000; stroke-width: 0.8"/>
      </g>
     </g>
     <g id="text_40">
      <!-- 80 -->
      <g transform="translate(877.116773 698.267237)scale(0.1 -0.1)">
       <use xlink:href="#DejaVuSans-38"/>
       <use xlink:href="#DejaVuSans-30" x="63.623047"/>
      </g>
     </g>
    </g>
    <g id="xtick_18">
     <g id="line2d_48">
      <g>
       <use xlink:href="#m611a235ee1" x="1011.665455" y="683.6688" style="stroke: #000000; stroke-width: 0.8"/>
      </g>
     </g>
     <g id="text_41">
      <!-- 100 -->
      <g transform="translate(1002.121705 698.267237)scale(0.1 -0.1)">
       <use xlink:href="#DejaVuSans-31"/>
       <use xlink:href="#DejaVuSans-30" x="63.623047"/>
       <use xlink:href="#DejaVuSans-30" x="127.246094"/>
      </g>
     </g>
    </g>
   </g>
   <g id="matplotlib.axis_6">
    <g id="ytick_13">
     <g id="line2d_49">
      <g>
       <use xlink:href="#m866c22532f" x="338.688" y="675.1635" style="stroke: #000000; stroke-width: 0.8"/>
      </g>
     </g>
     <g id="text_42">
      <!-- 0.0 -->
      <g transform="translate(315.784875 678.962718)scale(0.1 -0.1)">
       <use xlink:href="#DejaVuSans-30"/>
       <use xlink:href="#DejaVuSans-2e" x="63.623047"/>
       <use xlink:href="#DejaVuSans-30" x="95.410156"/>
      </g>
     </g>
    </g>
    <g id="ytick_14">
     <g id="line2d_50">
      <g>
       <use xlink:href="#m866c22532f" x="338.688" y="641.142298" style="stroke: #000000; stroke-width: 0.8"/>
      </g>
     </g>
     <g id="text_43">
      <!-- 0.2 -->
      <g transform="translate(315.784875 644.941516)scale(0.1 -0.1)">
       <use xlink:href="#DejaVuSans-30"/>
       <use xlink:href="#DejaVuSans-2e" x="63.623047"/>
       <use xlink:href="#DejaVuSans-32" x="95.410156"/>
      </g>
     </g>
    </g>
    <g id="ytick_15">
     <g id="line2d_51">
      <g>
       <use xlink:href="#m866c22532f" x="338.688" y="607.121096" style="stroke: #000000; stroke-width: 0.8"/>
      </g>
     </g>
     <g id="text_44">
      <!-- 0.4 -->
      <g transform="translate(315.784875 610.920315)scale(0.1 -0.1)">
       <use xlink:href="#DejaVuSans-30"/>
       <use xlink:href="#DejaVuSans-2e" x="63.623047"/>
       <use xlink:href="#DejaVuSans-34" x="95.410156"/>
      </g>
     </g>
    </g>
    <g id="ytick_16">
     <g id="line2d_52">
      <g>
       <use xlink:href="#m866c22532f" x="338.688" y="573.099894" style="stroke: #000000; stroke-width: 0.8"/>
      </g>
     </g>
     <g id="text_45">
      <!-- 0.6 -->
      <g transform="translate(315.784875 576.899113)scale(0.1 -0.1)">
       <use xlink:href="#DejaVuSans-30"/>
       <use xlink:href="#DejaVuSans-2e" x="63.623047"/>
       <use xlink:href="#DejaVuSans-36" x="95.410156"/>
      </g>
     </g>
    </g>
    <g id="ytick_17">
     <g id="line2d_53">
      <g>
       <use xlink:href="#m866c22532f" x="338.688" y="539.078692" style="stroke: #000000; stroke-width: 0.8"/>
      </g>
     </g>
     <g id="text_46">
      <!-- 0.8 -->
      <g transform="translate(315.784875 542.877911)scale(0.1 -0.1)">
       <use xlink:href="#DejaVuSans-30"/>
       <use xlink:href="#DejaVuSans-2e" x="63.623047"/>
       <use xlink:href="#DejaVuSans-38" x="95.410156"/>
      </g>
     </g>
    </g>
    <g id="ytick_18">
     <g id="line2d_54">
      <g>
       <use xlink:href="#m866c22532f" x="338.688" y="505.05749" style="stroke: #000000; stroke-width: 0.8"/>
      </g>
     </g>
     <g id="text_47">
      <!-- 1.0 -->
      <g transform="translate(315.784875 508.856709)scale(0.1 -0.1)">
       <use xlink:href="#DejaVuSans-31"/>
       <use xlink:href="#DejaVuSans-2e" x="63.623047"/>
       <use xlink:href="#DejaVuSans-30" x="95.410156"/>
      </g>
     </g>
    </g>
   </g>
   <g id="line2d_55">
    <path d="M 370.734545 505.05749 
L 377.143855 505.05749 
L 383.553164 505.05749 
L 389.962473 505.05749 
L 396.371782 505.05749 
L 402.781091 505.05749 
L 409.1904 505.05749 
L 415.599709 505.05749 
L 422.009018 505.05749 
L 428.418327 505.05749 
L 434.827636 505.05749 
L 441.236945 509.310141 
L 447.646255 513.562791 
L 454.055564 517.815441 
L 460.464873 522.068091 
L 466.874182 526.320741 
L 473.283491 530.573392 
L 479.6928 534.826042 
L 486.102109 539.078692 
L 492.511418 543.331342 
L 498.920727 547.583993 
L 505.330036 551.836643 
L 511.739345 556.089293 
L 518.148655 560.341943 
L 524.557964 564.594594 
L 530.967273 568.847244 
L 537.376582 573.099894 
L 543.785891 577.352544 
L 550.1952 581.605194 
L 556.604509 585.857845 
L 563.013818 590.110495 
L 569.423127 594.363145 
L 575.832436 598.615795 
L 582.241745 602.868446 
L 588.651055 607.121096 
L 595.060364 611.373746 
L 601.469673 615.626396 
L 607.878982 619.879047 
L 614.288291 624.131697 
L 620.6976 628.384347 
L 627.106909 632.636997 
L 633.516218 636.889647 
L 639.925527 641.142298 
L 646.334836 645.394948 
L 652.744145 649.647598 
L 659.153455 653.900248 
L 665.562764 658.152899 
L 671.972073 662.405549 
L 678.381382 666.658199 
L 684.790691 670.910849 
L 691.2 675.1635 
L 697.609309 675.1635 
L 704.018618 675.1635 
L 710.427927 675.1635 
L 716.837236 675.1635 
L 723.246545 675.1635 
L 729.655855 675.1635 
L 736.065164 675.1635 
L 742.474473 675.1635 
L 748.883782 675.1635 
L 755.293091 675.1635 
L 761.7024 675.1635 
L 768.111709 675.1635 
L 774.521018 675.1635 
L 780.930327 675.1635 
L 787.339636 675.1635 
L 793.748945 675.1635 
L 800.158255 675.1635 
L 806.567564 675.1635 
L 812.976873 675.1635 
L 819.386182 675.1635 
L 825.795491 675.1635 
L 832.2048 675.1635 
L 838.614109 675.1635 
L 845.023418 675.1635 
L 851.432727 675.1635 
L 857.842036 675.1635 
L 864.251345 675.1635 
L 870.660655 675.1635 
L 877.069964 675.1635 
L 883.479273 675.1635 
L 889.888582 675.1635 
L 896.297891 675.1635 
L 902.7072 675.1635 
L 909.116509 675.1635 
L 915.525818 675.1635 
L 921.935127 675.1635 
L 928.344436 675.1635 
L 934.753745 675.1635 
L 941.163055 675.1635 
L 947.572364 675.1635 
L 953.981673 675.1635 
L 960.390982 675.1635 
L 966.800291 675.1635 
L 973.2096 675.1635 
L 979.618909 675.1635 
L 986.028218 675.1635 
L 992.437527 675.1635 
L 998.846836 675.1635 
L 1005.256145 675.1635 
L 1011.665455 675.1635 
" clip-path="url(#p3295e17e2a)" style="fill: none; stroke: #1f77b4; stroke-width: 2.5; stroke-linecap: square"/>
   </g>
   <g id="line2d_56">
    <path d="M 370.734545 675.1635 
L 377.143855 675.1635 
L 383.553164 675.1635 
L 389.962473 675.1635 
L 396.371782 675.1635 
L 402.781091 675.1635 
L 409.1904 675.1635 
L 415.599709 675.1635 
L 422.009018 675.1635 
L 428.418327 675.1635 
L 434.827636 675.1635 
L 441.236945 675.1635 
L 447.646255 675.1635 
L 454.055564 675.1635 
L 460.464873 675.1635 
L 466.874182 675.1635 
L 473.283491 675.1635 
L 479.6928 675.1635 
L 486.102109 675.1635 
L 492.511418 675.1635 
L 498.920727 675.1635 
L 505.330036 675.1635 
L 511.739345 675.1635 
L 518.148655 675.1635 
L 524.557964 675.1635 
L 530.967273 675.1635 
L 537.376582 671.383366 
L 543.785891 667.603232 
L 550.1952 663.823099 
L 556.604509 660.042965 
L 563.013818 656.262832 
L 569.423127 652.482698 
L 575.832436 648.702565 
L 582.241745 644.922431 
L 588.651055 641.142298 
L 595.060364 637.362164 
L 601.469673 633.582031 
L 607.878982 629.801897 
L 614.288291 626.021764 
L 620.6976 622.24163 
L 627.106909 618.461496 
L 633.516218 614.681363 
L 639.925527 610.901229 
L 646.334836 607.121096 
L 652.744145 603.340962 
L 659.153455 599.560829 
L 665.562764 595.780695 
L 671.972073 592.000562 
L 678.381382 588.220428 
L 684.790691 584.440295 
L 691.2 580.660161 
L 697.609309 576.880028 
L 704.018618 573.099894 
L 710.427927 569.31976 
L 716.837236 565.539627 
L 723.246545 561.759493 
L 729.655855 557.97936 
L 736.065164 554.199226 
L 742.474473 550.419093 
L 748.883782 546.638959 
L 755.293091 542.858826 
L 761.7024 539.078692 
L 768.111709 535.298559 
L 774.521018 531.518425 
L 780.930327 527.738292 
L 787.339636 523.958158 
L 793.748945 520.178024 
L 800.158255 516.397891 
L 806.567564 512.617757 
L 812.976873 508.837624 
L 819.386182 505.05749 
L 825.795491 510.727691 
L 832.2048 516.397891 
L 838.614109 522.068091 
L 845.023418 527.738292 
L 851.432727 533.408492 
L 857.842036 539.078692 
L 864.251345 544.748892 
L 870.660655 550.419093 
L 877.069964 556.089293 
L 883.479273 561.759493 
L 889.888582 567.429694 
L 896.297891 573.099894 
L 902.7072 578.770094 
L 909.116509 584.440295 
L 915.525818 590.110495 
L 921.935127 595.780695 
L 928.344436 601.450896 
L 934.753745 607.121096 
L 941.163055 612.791296 
L 947.572364 618.461496 
L 953.981673 624.131697 
L 960.390982 629.801897 
L 966.800291 635.472097 
L 973.2096 641.142298 
L 979.618909 646.812498 
L 986.028218 652.482698 
L 992.437527 658.152899 
L 998.846836 663.823099 
L 1005.256145 669.493299 
L 1011.665455 675.1635 
" clip-path="url(#p3295e17e2a)" style="fill: none; stroke: #ff7f0e; stroke-width: 2.5; stroke-linecap: square"/>
   </g>
   <g id="line2d_57">
    <path d="M 370.734545 675.1635 
L 377.143855 675.1635 
L 383.553164 675.1635 
L 389.962473 675.1635 
L 396.371782 675.1635 
L 402.781091 675.1635 
L 409.1904 675.1635 
L 415.599709 675.1635 
L 422.009018 675.1635 
L 428.418327 675.1635 
L 434.827636 675.1635 
L 441.236945 675.1635 
L 447.646255 675.1635 
L 454.055564 675.1635 
L 460.464873 675.1635 
L 466.874182 675.1635 
L 473.283491 675.1635 
L 479.6928 675.1635 
L 486.102109 675.1635 
L 492.511418 675.1635 
L 498.920727 675.1635 
L 505.330036 675.1635 
L 511.739345 675.1635 
L 518.148655 675.1635 
L 524.557964 675.1635 
L 530.967273 675.1635 
L 537.376582 675.1635 
L 543.785891 675.1635 
L 550.1952 675.1635 
L 556.604509 675.1635 
L 563.013818 675.1635 
L 569.423127 675.1635 
L 575.832436 675.1635 
L 582.241745 675.1635 
L 588.651055 675.1635 
L 595.060364 675.1635 
L 601.469673 675.1635 
L 607.878982 675.1635 
L 614.288291 675.1635 
L 620.6976 675.1635 
L 627.106909 675.1635 
L 633.516218 675.1635 
L 639.925527 675.1635 
L 646.334836 675.1635 
L 652.744145 675.1635 
L 659.153455 675.1635 
L 665.562764 675.1635 
L 671.972073 675.1635 
L 678.381382 675.1635 
L 684.790691 675.1635 
L 691.2 675.1635 
L 697.609309 675.1635 
L 704.018618 675.1635 
L 710.427927 675.1635 
L 716.837236 675.1635 
L 723.246545 675.1635 
L 729.655855 675.1635 
L 736.065164 675.1635 
L 742.474473 675.1635 
L 748.883782 675.1635 
L 755.293091 675.1635 
L 761.7024 675.1635 
L 768.111709 675.1635 
L 774.521018 675.1635 
L 780.930327 675.1635 
L 787.339636 675.1635 
L 793.748945 675.1635 
L 800.158255 675.1635 
L 806.567564 675.1635 
L 812.976873 675.1635 
L 819.386182 675.1635 
L 825.795491 675.1635 
L 832.2048 675.1635 
L 838.614109 675.1635 
L 845.023418 675.1635 
L 851.432727 675.1635 
L 857.842036 668.359259 
L 864.251345 661.555019 
L 870.660655 654.750778 
L 877.069964 647.946538 
L 883.479273 641.142298 
L 889.888582 634.338057 
L 896.297891 627.533817 
L 902.7072 620.729577 
L 909.116509 613.925336 
L 915.525818 607.121096 
L 921.935127 600.316855 
L 928.344436 593.512615 
L 934.753745 586.708375 
L 941.163055 579.904134 
L 947.572364 573.099894 
L 953.981673 566.295654 
L 960.390982 559.491413 
L 966.800291 552.687173 
L 973.2096 545.882933 
L 979.618909 539.078692 
L 986.028218 532.274452 
L 992.437527 525.470211 
L 998.846836 518.665971 
L 1005.256145 511.861731 
L 1011.665455 505.05749 
" clip-path="url(#p3295e17e2a)" style="fill: none; stroke: #2ca02c; stroke-width: 2.5; stroke-linecap: square"/>
   </g>
   <g id="patch_15">
    <path d="M 338.688 683.6688 
L 338.688 496.55219 
" style="fill: none; stroke: #000000; stroke-width: 0.8; stroke-linejoin: miter; stroke-linecap: square"/>
   </g>
   <g id="patch_16">
    <path d="M 1043.712 683.6688 
L 1043.712 496.55219 
" style="fill: none; stroke: #000000; stroke-width: 0.8; stroke-linejoin: miter; stroke-linecap: square"/>
   </g>
   <g id="patch_17">
    <path d="M 338.688 683.6688 
L 1043.712 683.6688 
" style="fill: none; stroke: #000000; stroke-width: 0.8; stroke-linejoin: miter; stroke-linecap: square"/>
   </g>
   <g id="patch_18">
    <path d="M 338.688 496.55219 
L 1043.712 496.55219 
" style="fill: none; stroke: #000000; stroke-width: 0.8; stroke-linejoin: miter; stroke-linecap: square"/>
   </g>
   <g id="text_48">
    <!-- Fan Speed (%) -->
    <g transform="translate(647.809687 490.55219)scale(0.12 -0.12)">
     <defs>
      <path id="DejaVuSans-53" d="M 3425 4513 
L 3425 3897 
Q 3066 4069 2747 4153 
Q 2428 4238 2131 4238 
Q 1616 4238 1336 4038 
Q 1056 3838 1056 3469 
Q 1056 3159 1242 3001 
Q 1428 2844 1947 2747 
L 2328 2669 
Q 3034 2534 3370 2195 
Q 3706 1856 3706 1288 
Q 3706 609 3251 259 
Q 2797 -91 1919 -91 
Q 1588 -91 1214 -16 
Q 841 59 441 206 
L 441 856 
Q 825 641 1194 531 
Q 1563 422 1919 422 
Q 2459 422 2753 634 
Q 3047 847 3047 1241 
Q 3047 1584 2836 1778 
Q 2625 1972 2144 2069 
L 1759 2144 
Q 1053 2284 737 2584 
Q 422 2884 422 3419 
Q 422 4038 858 4394 
Q 1294 4750 2059 4750 
Q 2388 4750 2728 4690 
Q 3069 4631 3425 4513 
z
" transform="scale(0.015625)"/>
     </defs>
     <use xlink:href="#DejaVuSans-46"/>
     <use xlink:href="#DejaVuSans-61" x="48.394531"/>
     <use xlink:href="#DejaVuSans-6e" x="109.673828"/>
     <use xlink:href="#DejaVuSans-20" x="173.052734"/>
     <use xlink:href="#DejaVuSans-53" x="204.839844"/>
     <use xlink:href="#DejaVuSans-70" x="268.316406"/>
     <use xlink:href="#DejaVuSans-65" x="331.792969"/>
     <use xlink:href="#DejaVuSans-65" x="393.316406"/>
     <use xlink:href="#DejaVuSans-64" x="454.839844"/>
     <use xlink:href="#DejaVuSans-20" x="518.316406"/>
     <use xlink:href="#DejaVuSans-28" x="550.103516"/>
     <use xlink:href="#DejaVuSans-25" x="589.117188"/>
     <use xlink:href="#DejaVuSans-29" x="684.136719"/>
    </g>
   </g>
   <g id="legend_3">
    <g id="patch_19">
     <path d="M 964.726063 613.627682 
L 1036.712 613.627682 
Q 1038.712 613.627682 1038.712 611.627682 
L 1038.712 568.593307 
Q 1038.712 566.593307 1036.712 566.593307 
L 964.726063 566.593307 
Q 962.726063 566.593307 962.726063 568.593307 
L 962.726063 611.627682 
Q 962.726063 613.627682 964.726063 613.627682 
z
" style="fill: #ffffff; opacity: 0.8; stroke: #cccccc; stroke-linejoin: miter"/>
    </g>
    <g id="line2d_58">
     <path d="M 966.726063 574.691745 
L 976.726063 574.691745 
L 986.726063 574.691745 
" style="fill: none; stroke: #1f77b4; stroke-width: 2.5; stroke-linecap: square"/>
    </g>
    <g id="text_49">
     <!-- Low -->
     <g transform="translate(994.726063 578.191745)scale(0.1 -0.1)">
      <use xlink:href="#DejaVuSans-4c"/>
      <use xlink:href="#DejaVuSans-6f" x="53.962891"/>
      <use xlink:href="#DejaVuSans-77" x="115.144531"/>
     </g>
    </g>
    <g id="line2d_59">
     <path d="M 966.726063 589.36987 
L 976.726063 589.36987 
L 986.726063 589.36987 
" style="fill: none; stroke: #ff7f0e; stroke-width: 2.5; stroke-linecap: square"/>
    </g>
    <g id="text_50">
     <!-- Medium -->
     <g transform="translate(994.726063 592.86987)scale(0.1 -0.1)">
      <use xlink:href="#DejaVuSans-4d"/>
      <use xlink:href="#DejaVuSans-65" x="86.279297"/>
      <use xlink:href="#DejaVuSans-64" x="147.802734"/>
      <use xlink:href="#DejaVuSans-69" x="211.279297"/>
      <use xlink:href="#DejaVuSans-75" x="239.0625"/>
      <use xlink:href="#DejaVuSans-6d" x="302.441406"/>
     </g>
    </g>
    <g id="line2d_60">
     <path d="M 966.726063 604.047995 
L 976.726063 604.047995 
L 986.726063 604.047995 
" style="fill: none; stroke: #2ca02c; stroke-width: 2.5; stroke-linecap: square"/>
    </g>
    <g id="text_51">
     <!-- High -->
     <g transform="translate(994.726063 607.547995)scale(0.1 -0.1)">
      <use xlink:href="#DejaVuSans-48"/>
      <use xlink:href="#DejaVuSans-69" x="75.195312"/>
      <use xlink:href="#DejaVuSans-67" x="102.978516"/>
      <use xlink:href="#DejaVuSans-68" x="166.455078"/>
     </g>
    </g>
   </g>
  </g>
 </g>
 <defs>
  <clipPath id="pa4f7326aba">
   <rect x="338.688" y="21.276" width="705.024" height="187.11661"/>
  </clipPath>
  <clipPath id="pac83113f28">
   <rect x="338.688" y="258.914095" width="705.024" height="187.11661"/>
  </clipPath>
  <clipPath id="p3295e17e2a">
   <rect x="338.688" y="496.55219" width="705.024" height="187.11661"/>
  </clipPath>
 </defs>
</svg>
